<svg viewBox="0 0 50 50" xmlns="http://www.w3.org/2000/svg"><path d="M49.6,18.1c-1.3-1-3.2-1.2-4.8-0.5c-2,0.9-4.2,1.3-6.3,1.3c-2,0-4-0.4-5.9-1.2c-2.7-1.2-5.9-1.1-8.5,0.2 c-1.5,0.8-3.1,1.2-4.8,1.2c-2.2,0-4.3-0.7-6.2-2.1c-1.2-0.9-2.9-1-4.2-0.2c-1.3,0.8-2,2.2-1.8,3.6c0.2,1.7,1.1,3.3,2.4,4.5 c2.7,2.3,6.2,3.6,9.8,3.6c2.1,0,4.1-0.5,6-1.4c2.6-1.2,5.6-1.2,8.2,0c3,1.4,6.4,1.4,9.4,0c2.4-1.1,4.3-3,5.3-5.5 C50.5,20.5,50.3,19.1,49.6,18.1z M25,32.2c-2.4-0.8-4.6-0.8-7,0c-0.8,0.3-1.6,0.4-2.4,0.4c-2.7,0-5.3-1-7.4-2.8c-0.9-0.8-1.5-1.8-1.6-2.9 c-0.1-1,0.4-2,1.2-2.5c0.5-0.3,1.1-0.3,1.6,0c2.7,1.8,5.9,2.6,9.1,2.3c2.9-0.3,5.6-1.5,7.9-3.4c2.1-1.7,4.8-2.7,7.6-2.7 c1.5,0,3,0.3,4.4,0.9c0.7,0.3,1.2,1,1.2,1.7c0,1-0.6,1.9-1.6,2.4C32.1,31.2,28.6,32.2,25,32.2z" fill="#FFFFFF"/></svg>